<?xml version="1.0" encoding="UTF-8" standalone="no"?>
<svg
   xmlns:dc="http://purl.org/dc/elements/1.1/"
   xmlns:cc="http://creativecommons.org/ns#"
   xmlns:rdf="http://www.w3.org/1999/02/22-rdf-syntax-ns#"
   xmlns:svg="http://www.w3.org/2000/svg"
   xmlns="http://www.w3.org/2000/svg"
   xmlns:sodipodi="http://sodipodi.sourceforge.net/DTD/sodipodi-0.dtd"
   xmlns:inkscape="http://www.inkscape.org/namespaces/inkscape"
   viewBox="0 0 121.64 122.86"
   version="1.1"
   id="svg12"
   sodipodi:docname="particle.svg"
   inkscape:version="1.0.2 (e86c8708, 2021-01-15)">
  <metadata
     id="metadata18">
    <rdf:RDF>
      <cc:Work
         rdf:about="">
        <dc:format>image/svg+xml</dc:format>
        <dc:type
           rdf:resource="http://purl.org/dc/dcmitype/StillImage" />
        <dc:title></dc:title>
      </cc:Work>
    </rdf:RDF>
  </metadata>
  <defs
     id="defs16" />
  <sodipodi:namedview
     pagecolor="#ffffff"
     bordercolor="#00FF00"
     borderopacity="1"
     objecttolerance="10"
     gridtolerance="10"
     guidetolerance="10"
     inkscape:pageopacity="0"
     inkscape:pageshadow="2"
     inkscape:window-width="1440"
     inkscape:window-height="900"
     id="namedview14"
     showgrid="false"
     inkscape:zoom="4.7696565"
     inkscape:cx="60.82"
     inkscape:cy="61.43"
     inkscape:window-x="0"
     inkscape:window-y="0"
     inkscape:window-maximized="0"
     inkscape:current-layer="svg12"
     inkscape:document-rotation="0" />
  <path
     style="fill:none;stroke:#000000;stroke-width:1px;stroke-linecap:butt;stroke-linejoin:miter;stroke-opacity:1"
     d="m 2.84,0.2 58,30.87 57.96,-30.84 2.59239,0.18931741 0.41932,2.51590449 L 62.478294,121.60205 60.801024,123.06966 59,121.62 0.2096587,2.5159044 V 0.2096587 Z"
     id="path15" />
  <path
     style="fill:#00FF00;stroke-width:0.209659"
     d="M 60.059025,121.64882 C 59.082837,120.79943 0.85552262,2.7520436 0.85675269,1.6248547 L 0.85761067,0.83863456 H 1.7864685 c 0.827701,0 4.0815705,1.67821074 29.8781615,15.40991444 15.922115,8.475453 29.053046,15.409915 29.179843,15.409915 0.126796,0 13.104231,-6.850428 28.838744,-15.223174 C 105.41773,8.0625447 118.55082,1.114202 118.86788,0.99452858 c 0.31705,-0.1196734 0.91253,-0.15453878 1.3233,-0.0774787 0.6863,0.12875012 0.75626,0.21030172 0.86297,1.00588902 0.11011,0.8209236 -1.41571,3.9300628 -29.450283,60.0103721 -16.261526,32.529525 -29.810818,59.404039 -30.109535,59.721149 -0.298718,0.31711 -0.596232,0.57403 -0.661142,0.57092 -0.06491,-0.003 -0.413284,-0.26255 -0.774165,-0.57656 z"
     id="path19" />
</svg>
