<?xml version="1.0" encoding="UTF-8" standalone="no"?>
<svg
   xmlns:dc="http://purl.org/dc/elements/1.1/"
   xmlns:cc="http://creativecommons.org/ns#"
   xmlns:rdf="http://www.w3.org/1999/02/22-rdf-syntax-ns#"
   xmlns:svg="http://www.w3.org/2000/svg"
   xmlns="http://www.w3.org/2000/svg"
   xmlns:sodipodi="http://sodipodi.sourceforge.net/DTD/sodipodi-0.dtd"
   xmlns:inkscape="http://www.inkscape.org/namespaces/inkscape"
   viewBox="0 0 121.64 122.86"
   version="1.1"
   id="svg12"
   sodipodi:docname="particle.svg"
   inkscape:version="1.0.2 (e86c8708, 2021-01-15)">
  <metadata
     id="metadata18">
    <rdf:RDF>
      <cc:Work
         rdf:about="">
        <dc:format>image/svg+xml</dc:format>
        <dc:type
           rdf:resource="http://purl.org/dc/dcmitype/StillImage" />
      </cc:Work>
    </rdf:RDF>
  </metadata>
  <defs
     id="defs16" />
  <sodipodi:namedview
     pagecolor="#ffffff"
     bordercolor="#666666"
     borderopacity="1"
     objecttolerance="10"
     gridtolerance="10"
     guidetolerance="10"
     inkscape:pageopacity="0"
     inkscape:pageshadow="2"
     inkscape:window-width="1440"
     inkscape:window-height="766"
     id="namedview14"
     showgrid="false"
     inkscape:zoom="1.4648618"
     inkscape:cx="60.82"
     inkscape:cy="101.66783"
     inkscape:window-x="0"
     inkscape:window-y="25"
     inkscape:window-maximized="0"
     inkscape:current-layer="svg12"
     inkscape:document-rotation="0" />
  <path
     d="M59,121.62.2,2.78A1.92,1.92,0,0,1,1.08.2a1.89,1.89,0,0,1,1.76,0h0l58,30.87L118.8.23h0a1.89,1.89,0,0,1,1.76,0,1.92,1.92,0,0,1,.88,2.58L62.64,121.62a2,2,0,0,1-3.64,0Z"
     id="path10" />
  <path
     style="fill:#00ffff;stroke-width:0.682658"
     d="M 30.233917,62.566744 C 14.015603,29.797285 0.74607344,2.4568222 0.74607344,1.8101588 c 0,-0.6466633 0.45986876,-1.17575152 1.02193066,-1.17575152 0.5620618,0 14.0512949,6.93097462 29.9760729,15.40216672 L 60.698219,31.43874 64.343065,29.596573 C 66.347731,28.583382 79.443934,21.652406 93.44574,14.194407 107.44755,6.7364071 119.3514,0.63440728 119.89875,0.63440728 c 0.54735,0 0.99815,0.53759342 1.00178,1.19465192 0.003,0.6570586 -13.2663,27.9975218 -29.488736,60.7565848 -20.811465,42.026016 -29.818408,59.561936 -30.592683,59.561936 -0.774406,0 -9.775482,-17.53435 -30.585194,-59.580836 z"
     id="path20" />
  <path
     style="fill:#782121;stroke-width:0.682658"
     d="M 52.785917,106.65611 C 38.341693,78.946315 0.68898634,1.8292592 1.3036718,1.2145739 1.7374595,0.78078606 8.5290788,4.2227176 36.699393,19.152808 c 13.016009,6.898403 23.879149,12.542551 24.140311,12.542551 0.261163,0 8.811464,-4.415427 19.00067,-9.81206 C 111.47842,5.1264595 119.92923,0.807481 120.31804,1.1962844 c 0.20658,0.2065767 -2.30862,6.0013915 -5.58932,12.8773656 -8.72451,18.285564 -49.017169,99.20919 -51.70609,103.84632 l -2.298767,3.96429 z"
     id="path16" />
  <path
     style="fill:#782121;stroke-width:0.682658"
     d="M 50.802669,101.81319 C 37.408126,75.832806 4.0380733,7.625946 2.7754274,3.6477011 2.3742653,2.3837513 2.5153563,2.2675377 3.9213081,2.7038636 4.8031634,2.9775403 17.716466,9.6125856 32.617537,17.448408 c 14.901071,7.835823 27.620716,14.246951 28.265878,14.246951 0.645162,0 11.032301,-5.186776 23.082523,-11.526169 C 111.66763,5.5958663 118.54916,2.1580412 119.03885,2.6477299 119.25438,2.8632602 118.55153,4.956004 117.47697,7.2982717 113.97708,14.927106 64.879547,113.85442 62.776845,117.51433 l -2.044525,3.55865 z"
     id="path18" />
  <path
     style="fill:#782121;stroke-width:0.682658"
     d="M 51.118387,102.50804 C 38.322911,77.720465 4.0446045,7.6648748 2.825115,3.8096428 2.3680994,2.3648573 2.4765225,2.2554876 3.9213081,2.7038803 4.8031634,2.9775662 14.740568,8.0363989 26.004429,13.945731 c 24.726461,12.972182 34.201255,17.749628 35.20167,17.749628 0.413729,0 10.01919,-4.876146 21.345473,-10.83588 C 109.12863,6.8749938 118.55732,2.1662028 119.03192,2.6407967 119.24275,2.8516353 117.59759,6.9373146 115.37599,11.720084 110.36474,22.508545 63.92953,115.86651 62.069958,118.89184 l -1.355665,2.20552 z"
     id="path21" />
  <path
     style="fill:#782121;stroke-width:0.682658"
     d="M 50.408943,101.16589 C 36.52005,74.167263 4.0974426,7.8130019 2.8063479,3.7451229 2.5215965,2.8479506 2.6636543,2.3410539 3.1998385,2.3410539 c 0.4615186,0 11.0036905,5.3420138 23.4270475,11.8711421 31.932041,16.781966 33.685799,17.627148 35.434566,17.076843 0.81905,-0.257741 9.909491,-4.902163 20.20098,-10.320939 C 107.06307,7.9098261 118.56661,2.1754848 119.03077,2.639643 c 0.20957,0.2095827 -1.12549,3.6742884 -2.96682,7.699346 C 111.9241,19.388511 63.946386,115.84322 62.056964,118.915 l -1.370845,2.22869 z"
     id="path23" />
  <path
     style="fill:#782121;stroke-width:0.682658"
     d="M 50.39146,101.20841 C 35.48697,72.190298 2.4527192,4.3646649 2.4527192,2.7810071 c 0,-0.2419742 0.3341528,-0.4399532 0.7425616,-0.4399532 0.4084089,0 13.5094962,6.6626463 29.1135272,14.8058811 l 28.370965,14.80588 11.333972,-5.780129 c 6.233687,-3.17907 19.260834,-9.876363 28.949215,-14.882871 9.68838,-5.0065086 17.8028,-8.915176 18.03205,-8.6859277 0.22925,0.2292484 -1.09077,3.7198517 -2.93338,7.7568967 -3.50737,7.684455 -53.650038,108.388226 -54.75257,109.962056 -0.452261,0.64558 -3.589418,-4.84692 -10.9176,-19.11443 z"
     id="path25" />
  <path
     style="fill:#782121;stroke-width:0.682658"
     d="M 51.056097,102.57684 C 37.104107,75.50128 2.4527192,4.5059299 2.4527192,2.9960043 c 0,-0.3602227 0.3467137,-0.6549504 0.770475,-0.6549504 0.4237612,0 13.5295508,6.6606277 29.1239778,14.8013951 l 28.353502,14.801395 9.958206,-5.086573 c 5.477015,-2.797615 18.499493,-9.492853 28.93884,-14.878306 10.43935,-5.385453 19.16816,-9.6042019 19.39737,-9.3749976 0.2292,0.2292043 -1.0892,3.7197716 -2.92979,7.7568166 -3.47805,7.628558 -53.642595,108.365996 -54.759711,109.965166 -0.453635,0.64939 -3.380941,-4.41985 -10.249492,-17.74911 z"
     id="path27" />
  <path
     style="fill:#782121;stroke-width:0.682658"
     d=""
     id="path29" />
  <path
     style="fill:#0000ff;stroke-width:0.682658"
     d=""
     id="path31" />
  <path
     style="fill:#0000ff;stroke-width:0.682658"
     d="M 51.734494,103.94048 C 37.833793,77.049187 2.4527192,4.5686985 2.4527192,2.9834794 c 0,-0.353334 0.3577868,-0.6424255 0.7950818,-0.6424255 0.437295,0 13.529489,6.6482695 29.093765,14.7739321 l 28.298683,14.773933 3.161838,-1.515902 C 65.541097,29.539272 74.797428,24.766774 84.37171,19.767466 109.1602,6.8239078 118.56179,2.1706638 119.01309,2.6219734 119.22965,2.8385239 118.21005,5.7054709 116.74733,8.9929667 114.00413,15.158358 62.440558,118.7062 61.307835,120.32428 c -0.453899,0.64839 -3.186074,-4.02745 -9.573341,-16.3838 z"
     id="path33" />
</svg>
